<svg width="89" height="89" viewBox="0 0 89 89" fill="none" xmlns="http://www.w3.org/2000/svg">
<path fill-rule="evenodd" clip-rule="evenodd" d="M8.5882 8.58823C7.41663 9.7598 7.41663 11.6454 7.41663 15.4166V73.5833C7.41663 77.3546 7.41663 79.2402 8.5882 80.4118C9.75977 81.5833 11.6454 81.5833 15.4166 81.5833H73.5833C77.3545 81.5833 79.2402 81.5833 80.4117 80.4118C81.5833 79.2402 81.5833 77.3546 81.5833 73.5833V15.4167C81.5833 11.6454 81.5833 9.7598 80.4117 8.58823C80.2079 8.38437 79.9824 8.21598 79.7291 8.0769V63.0417H77.4803C75.8453 63.0417 75.0278 63.0417 74.2927 62.7372C73.5577 62.4327 72.9796 61.8546 71.8235 60.6985L62.1617 51.0367C60.8284 49.7034 60.1617 49.0367 59.3333 49.0367C58.5049 49.0367 57.8382 49.7034 56.5049 51.0367L46.5888 60.9528C45.6424 61.8992 45.1692 62.3724 44.6482 62.2721C44.1271 62.1717 43.8635 61.5566 43.3363 60.3264L35.7023 42.5137C34.6478 40.0533 34.1206 38.8231 33.0785 38.6225C32.0365 38.4218 31.0901 39.3682 29.1973 41.261L12.9791 57.4792V7.43359C10.769 7.48619 9.47435 7.70208 8.5882 8.58823Z" fill="#222222"/>
<path d="M8.41663 15.4166C8.41663 13.5027 8.41875 12.1679 8.55416 11.1608C8.68569 10.1824 8.92629 9.66432 9.29531 9.29531C9.66432 8.92629 10.1824 8.68569 11.1608 8.55416C12.1679 8.41875 13.5027 8.41663 15.4166 8.41663H73.5833C75.4972 8.41663 76.832 8.41875 77.8391 8.55416C78.8175 8.68569 79.3356 8.92629 79.7046 9.2953C80.0736 9.66432 80.3142 10.1824 80.4458 11.1608C80.5812 12.1679 80.5833 13.5027 80.5833 15.4166V73.5833C80.5833 75.4972 80.5812 76.832 80.4458 77.8391C80.3142 78.8175 80.0736 79.3356 79.7046 79.7046C79.3356 80.0736 78.8175 80.3142 77.8391 80.4458C76.832 80.5812 75.4972 80.5833 73.5833 80.5833H15.4166C13.5027 80.5833 12.1679 80.5812 11.1608 80.4458C10.1824 80.3142 9.66432 80.0736 9.2953 79.7046C8.92629 79.3356 8.68569 78.8175 8.55416 77.8391C8.41875 76.832 8.41663 75.4972 8.41663 73.5833V15.4166Z" stroke="#222222" stroke-width="2"/>
<ellipse cx="55.625" cy="33.375" rx="7.41667" ry="7.41667" fill="#222222"/>
</svg>
