<svg width="25" height="25" viewBox="0 0 25 25" fill="none" xmlns="http://www.w3.org/2000/svg">
<path d="M19.3831 5.24283C18.0079 3.82143 16.242 2.83976 14.3088 2.42197C12.3756 2.00418 10.362 2.16903 8.52246 2.89566C6.68297 3.6223 5.10025 4.87809 3.97447 6.50424C2.84868 8.13038 2.23038 10.0538 2.19776 12.0314C2.16514 14.0089 2.71967 15.9517 3.79121 17.6141C4.86275 19.2765 6.40319 20.5838 8.21772 21.3707C10.0322 22.1576 12.0394 22.3888 13.9853 22.035C15.9312 21.6812 17.7285 20.7583 19.1499 19.383" stroke="#9B9B9B" stroke-width="2"/>
<path d="M9.19672 12.1468L8.40566 12.7585L7.91627 12.1257L8.42626 11.5093L9.19672 12.1468ZM21.2116 11.3448C21.7638 11.354 22.2041 11.809 22.195 12.3612C22.1858 12.9134 21.7308 13.3537 21.1786 13.3446L21.2116 11.3448ZM12.3226 17.8238L8.40566 12.7585L9.98779 11.5351L13.9048 16.6004L12.3226 17.8238ZM8.42626 11.5093L12.5082 6.57596L14.0491 7.85094L9.96718 12.7843L8.42626 11.5093ZM9.21321 11.1469L21.2116 11.3448L21.1786 13.3446L9.18023 13.1467L9.21321 11.1469Z" fill="#9B9B9B"/>
</svg>
